<?xml version="1.0" encoding="UTF-8"?>
<svg version="1.1" xmlns="http://www.w3.org/2000/svg" width="512" height="512">
<path d="M0 0 C19.17434477 4.75970005 38.53374193 4.59588152 58.16650391 3.38354492 C67.97039334 2.79248001 77.76285691 2.65910699 87.58300781 2.6394043 C90.52908578 2.62960201 93.47449151 2.59838992 96.42041016 2.56713867 C117.10859867 2.45112324 136.02858984 5.98910079 151.83056641 20.37963867 C167.19118217 36.50522534 171.86635755 60.35815217 171.76806641 81.87963867 C170.61541411 110.1467766 158.26941822 136.80131285 139.76806641 157.87963867 C139.08744141 158.68143555 138.40681641 159.48323242 137.70556641 160.30932617 C125.25208824 174.75730671 108.8715874 185.64461005 91.76806641 193.87963867 C92.17798828 194.41073242 92.58791016 194.94182617 93.01025391 195.48901367 C93.54908203 196.19541992 94.08791016 196.90182617 94.64306641 197.62963867 C95.17673828 198.32573242 95.71041016 199.02182617 96.26025391 199.73901367 C99.68872519 204.60637705 100.77698408 208.94938287 100.76806641 214.87963867 C100.35508174 216.73941929 99.91584122 218.59349393 99.45556641 220.44213867 C98.30137793 226.551643 99.85532927 230.79424166 102.17431641 236.33203125 C107.22359405 248.50460007 109.57429479 261.65175994 111.58056641 274.62963867 C111.70455811 275.42660156 111.8285498 276.22356445 111.95629883 277.04467773 C112.52542128 281.02895427 112.82031399 284.86781044 112.77978516 288.89526367 C112.77591797 290.21010742 112.77205078 291.52495117 112.76806641 292.87963867 C113.09806641 293.20963867 113.42806641 293.53963867 113.76806641 293.87963867 C114.34556439 298.37654919 114.24752831 301.92071486 112.20556641 306.00463867 C111.40119141 306.95338867 110.59681641 307.90213867 109.76806641 308.87963867 C109.34009766 309.40944336 108.91212891 309.93924805 108.47119141 310.48510742 C78.90047323 343.79027197 12.10861377 351.22569164 -29.23193359 353.87963867 C-37.14586444 354.21743045 -45.06220741 354.22078698 -52.98193359 354.19213867 C-54.03331512 354.19031586 -55.08469666 354.18849304 -56.16793823 354.18661499 C-71.71316316 354.14130224 -86.9089179 353.73304482 -102.23193359 350.87963867 C-103.17037109 350.71334961 -104.10880859 350.54706055 -105.07568359 350.37573242 C-131.74723154 345.53613703 -168.28872282 337.02273942 -185.23193359 313.87963867 C-189.31128246 306.84627856 -190.54624396 300.68911744 -190.41943359 292.69213867 C-190.40976562 291.42249268 -190.40976562 291.42249268 -190.39990234 290.12719727 C-190.33544645 284.87102032 -190.01412708 279.69792646 -189.46630859 274.46948242 C-188.44695955 263.20567547 -189.64803693 252.63132867 -193.23193359 241.87963867 C-195.61444119 240.68838487 -197.40616835 240.59361712 -200.06347656 240.37060547 C-201.07501801 240.28333191 -202.08655945 240.19605835 -203.12875366 240.10614014 C-204.23272491 240.01463684 -205.33669617 239.92313354 -206.47412109 239.82885742 C-208.83157565 239.6253783 -211.18899628 239.42150579 -213.54638672 239.21728516 C-214.78267822 239.11133026 -216.01896973 239.00537537 -217.29272461 238.89620972 C-274.99863136 233.91763012 -274.99863136 233.91763012 -293.23193359 227.87963867 C-294.15490234 227.58444336 -295.07787109 227.28924805 -296.02880859 226.98510742 C-305.68298465 223.54763565 -312.09415504 218.10877584 -317.13818359 209.21166992 C-323.88826812 194.81952541 -318.47191769 175.24608223 -314.23193359 160.87963867 C-313.99087891 160.0346582 -313.74982422 159.18967773 -313.50146484 158.3190918 C-297.92380272 104.5390678 -261.85873954 73.81104906 -214.27636719 47.60229492 C-179.70268282 28.95178354 -143.64899144 18.38072383 -105.62597656 9.44396973 C-103.2658333 8.88762961 -100.90691734 8.32636563 -98.54833984 7.76342773 C-32.21427458 -8.05212922 -32.21427458 -8.05212922 0 0 Z " fill="#050505" transform="translate(330.23193359375,81.120361328125)"/>
<path d="M0 0 C6.75465547 1.6166257 13.31710296 1.82417065 20.22094727 1.83227539 C21.72949783 1.83726799 21.72949783 1.83726799 23.26852417 1.84236145 C25.39833116 1.8474119 27.52814602 1.84977036 29.65795898 1.84960938 C32.84185759 1.85176681 36.02539246 1.8698615 39.20922852 1.88891602 C50.08353587 1.91807732 60.76199875 1.54514994 71.57707214 0.39331055 C78.6311163 -0.35692269 85.61603344 -0.68499956 92.71313477 -0.64819336 C94.43113281 -0.64190918 94.43113281 -0.64190918 96.18383789 -0.63549805 C104.42135478 -0.52532067 111.88182777 0.16244431 119.77563477 2.66430664 C120.73985352 2.94274414 121.70407227 3.22118164 122.69750977 3.50805664 C136.23419922 7.84578033 145.92278851 16.85464713 152.52563477 29.28930664 C155.97187429 36.53585139 158.04014583 43.83594524 159.77563477 51.66430664 C159.95070557 52.44112793 160.12577637 53.21794922 160.30615234 54.01831055 C162.89602174 68.61477675 161.58220426 84.70734241 156.77563477 98.66430664 C156.4541748 99.64052979 156.4541748 99.64052979 156.1262207 100.63647461 C146.5977398 129.38141882 127.70368192 152.40205301 103.21313477 169.97680664 C102.51687988 170.48083008 101.820625 170.98485352 101.10327148 171.50415039 C91.36841814 178.33658792 91.36841814 178.33658792 85.77563477 179.66430664 C82.22094727 178.66430664 82.22094727 178.66430664 78.90063477 176.66430664 C73.04214191 173.22954014 67.20894533 170.85585796 60.77563477 168.66430664 C67.21611039 148.58409768 73.70441716 128.74360531 82.77563477 109.66430664 C83.34217773 108.44710937 83.34217773 108.44710937 83.92016602 107.20532227 C94.62081324 84.31476249 108.30963618 62.89738006 122.31201172 41.91479492 C123.86147893 39.5323114 125.32723328 37.1093097 126.77563477 34.66430664 C96.06298546 52.63689401 73.77443911 95.46047543 64.77563477 128.66430664 C61.48124782 141.57582317 58.54209105 154.33338827 57.77563477 167.66430664 C57.08155518 167.5536084 56.38747559 167.44291016 55.67236328 167.32885742 C32.75341889 163.7652128 9.93256976 162.51037912 -13.22436523 161.66430664 C-14.29994155 129.76933216 -7.90082923 101.74839642 3.7043457 72.30834961 C4.35040024 70.66914073 4.99534018 69.02949212 5.63916016 67.3894043 C6.25613635 65.82085304 6.87748411 64.25401183 7.50390625 62.68920898 C10.97371221 53.90406115 13.12566796 43.13159801 9.79907227 33.97680664 C7.5937529 30.29676451 5.7390228 28.4004061 1.77563477 26.66430664 C2.27063477 27.73680664 2.76563477 28.80930664 3.27563477 29.91430664 C8.04652803 43.31935307 2.17971589 54.46003444 -3.22436523 66.66430664 C-17.32029122 98.5115328 -22.66485883 126.68529524 -19.22436523 161.66430664 C-22.46454558 162.60393492 -25.51125692 162.86648085 -28.87670898 163.02368164 C-43.57467659 163.80451438 -58.07846722 165.11205664 -72.66186523 167.10180664 C-73.8140303 167.25679626 -73.8140303 167.25679626 -74.98947144 167.41491699 C-84.12925681 168.65367072 -93.15156765 170.15886486 -102.16992188 172.09814453 C-105.22436523 172.66430664 -105.22436523 172.66430664 -109.22436523 172.66430664 C-109.4319043 171.72071289 -109.63944336 170.77711914 -109.85327148 169.80493164 C-112.33321415 159.20755067 -116.54117781 151.05542519 -122.68920898 142.04321289 C-134.22519369 125.1329294 -140.70327193 107.09271243 -145.22436523 87.16430664 C-148.72098243 72.62730663 -156.22382222 58.68765432 -169.22436523 50.66430664 C-172.01685917 49.30785414 -172.01685917 49.30785414 -174.22436523 48.66430664 C-172.2337942 52.16475354 -170.04784295 55.12799306 -167.41186523 58.16430664 C-158.32198427 69.40969246 -155.02466466 82.81493358 -152.48852539 96.75927734 C-148.90588083 116.36068112 -142.54992295 132.45511181 -129.56030273 147.88305664 C-122.76282728 155.97637189 -117.09678496 163.77893366 -113.22436523 173.66430664 C-117.15059631 175.02389064 -121.04156655 176.15089182 -125.09155273 177.07446289 C-137.0508172 179.87936185 -148.77518685 182.90556467 -160.28686523 187.22680664 C-161.22965332 187.57815674 -162.17244141 187.92950684 -163.14379883 188.29150391 C-169.02751002 190.57611972 -174.45544845 193.33134239 -179.90966797 196.5078125 C-182.22436523 197.66430664 -182.22436523 197.66430664 -185.22436523 197.66430664 C-185.81217773 196.33399414 -185.81217773 196.33399414 -186.41186523 194.97680664 C-189.60934039 189.13314515 -193.76660971 186.03921142 -199.66186523 183.10180664 C-200.75370117 182.54364258 -201.84553711 181.98547852 -202.97045898 181.41040039 C-214.64843369 176.26201408 -226.98847838 174.67590894 -239.54467773 173.24243164 C-253.38014527 171.52777968 -268.25986153 167.75772051 -277.57202148 156.53930664 C-280.38414181 151.64635024 -282.01460355 146.28329081 -283.65283203 140.89819336 C-285.73575005 134.23209111 -288.06036179 129.77364227 -294.03686523 125.78930664 C-295.11967773 125.23243164 -295.11967773 125.23243164 -296.22436523 124.66430664 C-285.2794076 88.25444758 -245.92108058 62.95867046 -214.51025391 45.96655273 C-212.41986675 44.85617453 -210.32256199 43.75983428 -208.22436523 42.66430664 C-206.98602991 41.99904271 -205.74774718 41.33368085 -204.50952148 40.66821289 C-162.52901077 18.52123275 -114.75565358 7.50658379 -68.28686523 -0.52319336 C-67.190578 -0.71344086 -67.190578 -0.71344086 -66.07214355 -0.90753174 C-42.54128114 -4.96807345 -23.27451833 -6.51191991 0 0 Z " fill="#F2F2F0" transform="translate(331.224365234375,93.335693359375)"/>
<path d="M0 0 C1.7397423 -0.00868803 3.47947361 -0.02011545 5.21917725 -0.03460693 C20.94441904 -0.15009195 36.39107059 0.90170622 51.78329468 4.29922485 C52.73260864 4.50660278 53.68192261 4.71398071 54.66000366 4.92764282 C66.13525759 7.58738817 77.40483106 11.6213277 87.93563843 16.91641235 C90.29772291 18.32237515 90.29772291 18.32237515 92.47079468 18.17422485 C92.80079468 17.18422485 93.13079468 16.19422485 93.47079468 15.17422485 C93.14079468 16.82422485 92.81079468 18.47422485 92.47079468 20.17422485 C91.48079468 20.50422485 90.49079468 20.83422485 89.47079468 21.17422485 C88.07372134 41.72672593 93.348928 62.03984256 100.47079468 81.17422485 C100.80079468 82.16422485 101.13079468 83.15422485 101.47079468 84.17422485 C100.83528687 83.9112561 100.19977905 83.64828735 99.54501343 83.37734985 C77.84107996 74.88330728 55.51020645 69.64684374 32.40829468 66.86172485 C31.7357666 66.78032257 31.06323853 66.69892029 30.37033081 66.61505127 C12.58252072 64.50369565 -5.1303365 63.93653855 -23.02920532 63.92422485 C-24.05500702 63.92321777 -25.08080872 63.92221069 -26.13769531 63.9211731 C-53.29315924 63.93907369 -79.76450021 66.49071565 -106.52920532 71.17422485 C-107.57028442 71.35179321 -108.61136353 71.52936157 -109.68399048 71.71231079 C-149.46687759 78.5338191 -149.46687759 78.5338191 -186.90420532 92.9359436 C-189.52920532 94.17422485 -189.52920532 94.17422485 -192.52920532 93.17422485 C-191.93108032 92.03984985 -191.33295532 90.90547485 -190.71670532 89.73672485 C-184.18868001 76.65752521 -181.47925332 59.35490235 -185.0741272 44.99795532 C-186.74435225 40.49473522 -189.29475167 36.75489309 -192.22842407 32.9984436 C-193.52920532 31.17422485 -193.52920532 31.17422485 -193.52920532 29.17422485 C-158.28698485 20.46423447 -122.90594622 11.79666758 -86.80899048 7.46865845 C-82.96991724 6.97284325 -79.15919761 6.31222446 -75.34170532 5.67422485 C-50.29157123 1.60170626 -25.33637196 0.12127076 0 0 Z " fill="#F1F1EF" transform="translate(335.5292053222656,287.8257751464844)"/>
<path d="M0 0 C1.28740585 -0.00705963 2.57481171 -0.01411926 3.90122986 -0.02139282 C8.07608543 -0.04109357 12.25088365 -0.0460874 16.42578125 -0.046875 C17.49040211 -0.04731686 17.49040211 -0.04731686 18.57653046 -0.04776764 C55.63100827 -0.0502575 92.15688669 1.1062303 127.73339844 12.72998047 C131.1861588 13.85152461 134.1030919 14.43720916 137.73828125 14.203125 C137.46209479 18.80623268 136.83468869 22.17979231 133.6015625 25.61328125 C124.06728234 33.7484008 112.50613472 38.04120148 100.92919922 42.37939453 C99.17213476 43.04000691 97.4242607 43.72504121 95.6796875 44.41796875 C71.73588369 53.71907195 45.13153948 57.45461683 19.73828125 60.203125 C18.35213623 60.35974609 18.35213623 60.35974609 16.93798828 60.51953125 C-17.24074472 64.25866216 -53.51923274 64.09076647 -87.26171875 57.203125 C-88.47085938 56.98914063 -89.68 56.77515625 -90.92578125 56.5546875 C-105.63147468 53.87806236 -119.73873361 49.49290246 -133.51171875 43.703125 C-134.36846191 43.34782715 -135.22520508 42.9925293 -136.10791016 42.62646484 C-144.30180838 39.06228838 -152.4229997 33.95512127 -157.26171875 26.203125 C-157.62429968 24.54257571 -157.96075908 22.87594064 -158.26171875 21.203125 C-133.72874247 15.47010804 -109.18887427 10.78565098 -84.26171875 7.203125 C-82.71967773 6.97713623 -82.71967773 6.97713623 -81.14648438 6.74658203 C-65.69596361 4.51419739 -50.17402576 3.32726783 -34.61108398 2.20458984 C-33.78950302 2.1449707 -32.96792206 2.08535156 -32.1214447 2.02392578 C-30.58160777 1.91292034 -29.04162736 1.80387896 -27.5014801 1.69726562 C-24.15756082 1.45759554 -20.88380665 1.14921948 -17.5612793 0.67529297 C-11.73256629 -0.079706 -5.8680988 0.02117914 0 0 Z " fill="#DDDDDB" transform="translate(303.26171875,361.796875)"/>
<path d="M0 0 C9.68810482 5.70700711 14.68709013 12.34628249 17.7421875 22.99609375 C20.36695971 35.17595779 15.6239541 46.900656 9.1875 57.0625 C3.65495127 64.6418526 -2.96232934 71.31900152 -9.66015625 77.859375 C-13.70123156 81.99579329 -17.27117388 86.49725455 -20.8125 91.0625 C-21.72322266 92.23039062 -21.72322266 92.23039062 -22.65234375 93.421875 C-30.74960807 104.36511658 -36.51966976 116.87487788 -39.8125 130.0625 C-39.9789502 130.69615479 -40.14540039 131.32980957 -40.31689453 131.98266602 C-41.95353968 138.637699 -42.45720031 145.30238224 -42.9375 152.125 C-43.02386719 153.27677734 -43.11023438 154.42855469 -43.19921875 155.61523438 C-43.40949593 158.43061223 -43.61378364 161.24628659 -43.8125 164.0625 C-44.946875 163.59199219 -46.08125 163.12148438 -47.25 162.63671875 C-48.77080495 162.00774386 -50.29163989 161.37884149 -51.8125 160.75 C-52.55628906 160.44126953 -53.30007813 160.13253906 -54.06640625 159.81445312 C-54.80761719 159.50830078 -55.54882812 159.20214844 -56.3125 158.88671875 C-56.9828125 158.60916748 -57.653125 158.33161621 -58.34375 158.0456543 C-61.81354636 156.66384358 -65.31284548 155.36682896 -68.8125 154.0625 C-62.37202437 133.98229104 -55.88371761 114.14179867 -46.8125 95.0625 C-46.43480469 94.25103516 -46.05710937 93.43957031 -45.66796875 92.60351562 C-34.96732153 69.71295585 -21.27849859 48.29557342 -7.27612305 27.31298828 C-5.72665584 24.93050475 -4.26090148 22.50750306 -2.8125 20.0625 C-33.58076046 38.0676302 -55.71070465 80.84621827 -64.8125 114.0625 C-66.65774645 121.35615161 -68.28126423 128.6971532 -69.8125 136.0625 C-70.1425 136.0625 -70.4725 136.0625 -70.8125 136.0625 C-73.38347836 39.63713598 -73.38347836 39.63713598 -53.8125 14.0625 C-53.173125 13.155 -52.53375 12.2475 -51.875 11.3125 C-39.02105951 -2.70998053 -17.50519893 -8.23885993 0 0 Z " fill="#D9D9D7" transform="translate(460.8125,107.9375)"/>
<path d="M0 0 C1.32 0 2.64 0 4 0 C10.36174654 15.45620207 14.26066664 31.24307063 16.8125 47.75 C16.9364917 48.54696289 17.0604834 49.34392578 17.18823242 50.16503906 C17.75735487 54.1493156 18.05224758 57.98817177 18.01171875 62.015625 C18.00785156 63.33046875 18.00398438 64.6453125 18 66 C18.33 66.33 18.66 66.66 19 67 C19.57749798 71.49691052 19.47946191 75.04107618 17.4375 79.125 C16.633125 80.07375 15.82875 81.0225 15 82 C14.57203125 82.52980469 14.1440625 83.05960937 13.703125 83.60546875 C-15.86759318 116.91063329 -82.65945263 124.34605297 -124 127 C-131.91393085 127.33779178 -139.83027382 127.34114831 -147.75 127.3125 C-148.80138153 127.31067719 -149.85276306 127.30885437 -150.93600464 127.30697632 C-166.48122957 127.26166357 -181.67698431 126.85340615 -197 124 C-197.9384375 123.83371094 -198.876875 123.66742188 -199.84375 123.49609375 C-226.51529794 118.65649836 -263.05678923 110.14310075 -280 87 C-284.07934887 79.96663989 -285.31431037 73.80947877 -285.1875 65.8125 C-285.18105469 64.96606934 -285.17460937 64.11963867 -285.16796875 63.24755859 C-285.10351285 57.99138165 -284.78219348 52.81828779 -284.234375 47.58984375 C-283.40347202 38.40836586 -284.14087794 30.21783076 -286.265625 21.2578125 C-287.18703748 17.17026991 -287.64048329 13.17039381 -288 9 C-286.68 9 -285.36 9 -284 9 C-284 9.66 -284 10.32 -284 11 C-283.01 11.33 -282.02 11.66 -281 12 C-279.46484375 14.109375 -279.46484375 14.109375 -277.9375 16.75 C-277.43089844 17.61109375 -276.92429687 18.4721875 -276.40234375 19.359375 C-272.98613907 25.79211696 -272.64842174 30.87497403 -272.6875 38.0625 C-272.69168945 39.09656982 -272.69587891 40.13063965 -272.70019531 41.19604492 C-272.86667689 52.44329261 -275.52669135 61.73636797 -280 72 C-276.03435611 72 -272.97586552 70.43536878 -269.375 68.9375 C-240.58726585 57.4017594 -208.67568047 50.76650592 -177.90234375 47.17456055 C-175.89500848 46.93983962 -173.88891632 46.6961716 -171.8828125 46.45117188 C-167.59204485 45.93388521 -163.29715717 45.46085877 -159 45 C-158.17072998 44.90926208 -157.34145996 44.81852417 -156.48706055 44.72503662 C-142.2146951 43.19130474 -128.09928097 42.67337243 -113.75 42.75 C-112.21410721 42.75415421 -112.21410721 42.75415421 -110.64718628 42.75839233 C-95.97178995 42.80481041 -81.40034834 43.08609195 -66.79931641 44.69238281 C-63.92443262 45.00830411 -61.04721219 45.28165992 -58.16796875 45.5546875 C-35.3384595 47.89346736 -9.49460063 52.14092056 11 63 C10.75765625 62.46375 10.5153125 61.9275 10.265625 61.375 C6.89107985 53.48375597 4.88858148 45.34182878 3 37 C2.81373047 36.20174805 2.62746094 35.40349609 2.43554688 34.58105469 C-0.16241711 23.33054963 -1.9537694 12.58595287 -1 1 C-0.67 0.67 -0.34 0.34 0 0 Z M-165.84179688 56.6328125 C-169.53422881 57.06211195 -173.22861015 57.37235619 -176.93334961 57.67163086 C-209.39000684 60.37500007 -241.71132532 66.26408435 -273.5390625 72.984375 C-274.76423584 73.24299316 -274.76423584 73.24299316 -276.01416016 73.50683594 C-278.05666805 73.93731083 -278.05666805 73.93731083 -280 75 C-279.14714776 81.76275793 -275.01506215 85.67780828 -270 90 C-248.47197616 104.15200891 -220.10472716 110.15190287 -195 113.6875 C-194.17177734 113.80681885 -193.34355469 113.9261377 -192.49023438 114.04907227 C-177.60185868 116.01833619 -162.49847558 116.23883929 -147.5 116.25 C-146.24908569 116.25101212 -146.24908569 116.25101212 -144.97290039 116.25204468 C-96.78330651 116.19106106 -26.13301691 112.60628548 11.74609375 79.47265625 C15.02813195 75.96747664 15.71806278 72.69895374 16 68 C14.89011719 67.89300781 13.78023438 67.78601563 12.63671875 67.67578125 C7.53586648 67.03663562 2.7385064 65.61836872 -2.1875 64.1875 C-53.8267629 49.85684319 -112.8443989 50.27432446 -165.84179688 56.6328125 Z " fill="#050505" transform="translate(425,308)"/>
<path d="M0 0 C2.90448689 1.0015472 3.93447857 1.89912528 5.62890625 4.5078125 C7.66656468 9.69774595 8.45677466 14.99927083 9.37304688 20.48046875 C11.03830674 29.66378466 14.32545889 37.33340464 22 43 C24.5066017 44.53161109 27.07434637 45.90947811 29.6875 47.25 C30.32204102 47.57935547 30.95658203 47.90871094 31.61035156 48.24804688 C41.35578228 52.98749553 51.54161857 54.38631996 62.25 55 C97.62783384 57.50212393 97.62783384 57.50212393 108.875 68.25 C111 71 111 71 111 73 C109.06469234 74.82729049 107.00952377 76.46895378 104.9453125 78.1484375 C102.93253522 80.06421347 101.91973772 81.38993349 101 84 C100.93442638 86.20287627 100.93442638 86.20287627 101.3125 88.4375 C101.46138672 89.54931641 101.46138672 89.54931641 101.61328125 90.68359375 C102.02247036 93.13459521 102.50793939 95.56443885 103 98 C93.28135796 97.42058409 83.74872597 95.71829931 74.16226196 94.10440063 C61.23743223 91.93012374 48.33936119 89.78054594 35.3125 88.3125 C19.71136475 86.50043173 2.46196423 83.74152433 -9 72 C-15.65610953 62.92514029 -15.94326815 54.64133742 -14.57421875 43.55078125 C-11.8948967 28.60904049 -6.88078727 13.53961366 0 0 Z " fill="#F0F0EE" transform="translate(33,221)"/>
<path d="M0 0 C16.2521823 6.42006096 27.00405728 19.63466213 34.4375 35 C41.00692525 50.38628546 40.32191827 68.07718875 34.4375 83.5625 C32.77046139 86.20676813 30.98948874 88.47492788 29.00390625 90.8828125 C24.5465255 96.42181889 20.63423469 102.23838003 16.75 108.1875 C11.5147655 116.13637475 6.20063702 123.97889295 0.54296875 131.6328125 C-1.39544462 134.46739661 -2.91501759 137.33331026 -4.375 140.4375 C-5.035 140.4375 -5.695 140.4375 -6.375 140.4375 C-5.62504571 114.26409545 1.55070962 90.76423891 11.10986328 66.59472656 C18.43018277 48.63744791 18.43018277 48.63744791 16.640625 29.76953125 C14.45562142 26.06716408 12.59369986 24.17592622 8.625 22.4375 C9.12 23.51 9.615 24.5825 10.125 25.6875 C14.89589326 39.09254643 9.02908112 50.2332278 3.625 62.4375 C-4.45196242 80.68595342 -11.61316631 98.38904768 -13.375 118.4375 C-16.27781236 115.53468764 -16.00084604 112.31779633 -16.33642578 108.40209961 C-16.45390671 107.15515068 -16.45390671 107.15515068 -16.57376099 105.88301086 C-16.83163923 103.11937117 -17.07629432 100.35473923 -17.3203125 97.58984375 C-17.49624943 95.66039442 -17.6727615 93.73099746 -17.849823 91.801651 C-18.22028693 87.74253339 -18.58433812 83.68290483 -18.94384766 79.62280273 C-19.40100679 74.46460102 -19.87276682 69.30786809 -20.34941292 64.1514349 C-20.71717781 60.15632008 -21.07738503 56.16055009 -21.43542099 52.16455269 C-21.6062729 50.2665101 -21.77925773 48.36865809 -21.95456314 46.47102165 C-22.79820282 37.29250215 -23.52158366 28.15775999 -23.55419922 18.93579102 C-23.55783037 18.24531394 -23.56146152 17.55483686 -23.56520271 16.84343624 C-23.52468533 11.64050006 -22.94883892 7.96390637 -20.375 3.4375 C-14.0083138 -2.61861614 -8.07076842 -2.67880824 0 0 Z " fill="#D9D9D7" transform="translate(324.375,97.5625)"/>
<path d="M0 0 C4.3891797 4.10835541 8.44142842 8.34674851 8.84375 14.55859375 C8.80894531 16.15960938 8.80894531 16.15960938 8.7734375 17.79296875 C8.75539063 18.870625 8.73734375 19.94828125 8.71875 21.05859375 C8.68394531 22.28835938 8.68394531 22.28835938 8.6484375 23.54296875 C5.0772624 21.83992661 1.73424394 19.81549023 -1.6640625 17.79296875 C-55.2080471 -13.01440484 -134.37533998 -3.14575231 -191.96240234 10.96972656 C-194.30028016 11.53066434 -196.64301496 12.04224448 -198.99609375 12.53515625 C-215.26628451 15.94627861 -231.09725676 20.71063146 -246.88195801 25.8961792 C-248.7895402 26.52260153 -250.69894177 27.14347506 -252.60839844 27.76416016 C-259.95885356 30.21398404 -266.80720217 33.02592814 -273.72460938 36.50390625 C-276.3515625 37.54296875 -276.3515625 37.54296875 -279.3515625 36.54296875 C-279.79684956 31.53596319 -280.03288141 27.76464404 -277.5390625 23.29296875 C-251.39826706 -2.62937993 -195.09677353 -4.41610453 -160.3515625 -9.45703125 C-159.3399707 -9.60769043 -158.32837891 -9.75834961 -157.28613281 -9.91357422 C-150.65461752 -10.8947796 -144.0155509 -11.72890662 -137.3515625 -12.45703125 C-136.10117187 -12.59383301 -134.85078125 -12.73063477 -133.5625 -12.87158203 C-29.23572281 -23.9930299 -29.23572281 -23.9930299 0 0 Z " fill="#EEEEEC" transform="translate(417.3515625,279.45703125)"/>
<path d="M0 0 C16.79723081 -1.45360651 37.55396227 5.8635631 50.703125 16.10546875 C62.65162391 26.49780089 70.96542905 40.07629438 72.25463867 56.1809082 C72.32861549 59.45923618 72.31222478 62.72153172 72.25 66 C72.24484375 67.11761719 72.2396875 68.23523438 72.234375 69.38671875 C72.15576475 77.53270575 72.15576475 77.53270575 71 81 C69.48018345 92.18355573 71.63920193 98.69405055 77.93359375 107.85546875 C81.08079505 112.64468811 81.40898922 116.27415086 81 122 C79.75 124.4375 79.75 124.4375 78 126 C76.68 126 75.36 126 74 126 C73.79246094 125.05640625 73.58492188 124.1128125 73.37109375 123.140625 C70.89115109 112.54324403 66.68318742 104.39111855 60.53515625 95.37890625 C48.99917155 78.46862275 42.5210933 60.42840579 38 40.5 C34.5033828 25.96299999 27.00054302 12.02334768 14 4 C11.20750607 2.6435475 11.20750607 2.6435475 9 2 C10.99057104 5.5004469 13.17652229 8.46368642 15.8125 11.5 C24.90238096 22.74538582 28.19970058 36.15062694 30.73583984 50.0949707 C34.31848441 69.69637448 40.67444229 85.79080517 53.6640625 101.21875 C60.46153795 109.31206525 66.12758027 117.11462702 70 127 C65.75095741 128.41950198 63.62212187 127.3660786 59.703125 125.50390625 C39.30113465 114.15308792 25.41733753 98.13799285 18.70654297 75.72631836 C16.22686948 66.24709949 15.42431368 56.36112199 14.4309082 46.63378906 C12.67425408 29.55062245 10.32829462 14.30071563 0 0 Z " fill="#D9D9D7" transform="translate(148,140)"/>
<path d="M0 0 C2.88243053 0.99394156 3.90096479 1.83868491 5.515625 4.46875 C7.69480709 9.6529095 8.44960744 14.95639607 9.37304688 20.48046875 C11.03830674 29.66378466 14.32545889 37.33340464 22 43 C24.5066017 44.53161109 27.07434637 45.90947811 29.6875 47.25 C30.32204102 47.57935547 30.95658203 47.90871094 31.61035156 48.24804688 C41.35578228 52.98749553 51.54161857 54.38631996 62.25 55 C97.62783384 57.50212393 97.62783384 57.50212393 108.875 68.25 C111 71 111 71 111 73 C107.09555934 72.49072513 103.30369492 71.84904405 99.46313477 70.98022461 C93.77387169 69.8355271 88.25304151 69.70366309 82.46484375 69.69140625 C80.25064857 69.66623165 78.03645593 69.64083386 75.82226562 69.61523438 C72.38908641 69.58666321 68.95595124 69.56260158 65.52270508 69.54370117 C24.71236833 69.27608276 24.71236833 69.27608276 11.6875 57.3125 C1.6941194 46.47630416 -1.52962493 30.14851178 -4 16 C-4.66 16 -5.32 16 -6 16 C-4.43551329 10.3856009 -2.83604813 5.13189662 0 0 Z " fill="#D8D8D6" transform="translate(33,221)"/>
<path d="M0 0 C0.33 0.66 0.66 1.32 1 2 C0.04287109 2.07347656 0.04287109 2.07347656 -0.93359375 2.1484375 C-1.75988281 2.22320312 -2.58617187 2.29796875 -3.4375 2.375 C-4.26121094 2.44460938 -5.08492187 2.51421875 -5.93359375 2.5859375 C-6.95646484 2.79089844 -6.95646484 2.79089844 -8 3 C-8.33 3.66 -8.66 4.32 -9 5 C-9 4.01 -9 3.02 -9 2 C-3.375 -1.125 -3.375 -1.125 0 0 Z " fill="#2F2F2F" transform="translate(150,314)"/>
<path d="M0 0 C0 0.66 0 1.32 0 2 C-3.3 2.66 -6.6 3.32 -10 4 C-10 3.34 -10 2.68 -10 2 C-3.375 -1.125 -3.375 -1.125 0 0 Z " fill="#212120" transform="translate(153,380)"/>
</svg>
